<svg xmlns="http://www.w3.org/2000/svg" viewBox="0 0 64 64" role="img" aria-label="FuelShield">
  <defs>
    <linearGradient id="fuelshield-gradient" x1="10" y1="8" x2="54" y2="58" gradientUnits="userSpaceOnUse">
      <stop offset="0" stop-color="#36e28f"/>
      <stop offset="1" stop-color="#3ab8ff"/>
    </linearGradient>
    <filter id="soft-shadow" x="-20%" y="-20%" width="140%" height="140%">
      <feDropShadow dx="0" dy="5" stdDeviation="4" flood-color="#020812" flood-opacity="0.35"/>
    </filter>
  </defs>
  <rect width="64" height="64" rx="16" fill="#071018"/>
  <path filter="url(#soft-shadow)" fill="url(#fuelshield-gradient)" d="M32 7 51 14v16c0 13.4-7.4 23-19 28C20.4 53 13 43.4 13 30V14l19-7Z"/>
  <path fill="#071018" fill-opacity="0.92" d="M33.5 18.3c5 5 10.5 11.5 10.5 18.3 0 7.1-5.3 12.1-12 12.1s-12-5-12-12.1c0-6.8 5.5-13.3 10.5-18.3.8-.8 2.2-.8 3 0Z"/>
  <path fill="#36e28f" d="M34.5 25.4c2.7 3.3 5.2 7.2 5.2 11 0 4.5-3.2 7.7-7.7 7.7s-7.7-3.2-7.7-7.7c0-3.8 2.5-7.7 5.2-11 .9-1.1 2.3-1.1 3 0Z"/>
  <path fill="#3ab8ff" d="M40.1 15.6 48 18.5V30c0 7.6-2.8 13.8-8.1 18.5 3-4.3 4.3-9.3 4.3-14.8 0-6.7-2.1-12.8-4.1-18.1Z" opacity="0.38"/>
</svg>
