<svg xmlns="http://www.w3.org/2000/svg" viewBox="0 0 300 72" role="img" aria-label="FuelShield logo">
  <defs>
    <linearGradient id="logo-gradient" x1="6" y1="6" x2="62" y2="66" gradientUnits="userSpaceOnUse">
      <stop offset="0" stop-color="#36e28f"/>
      <stop offset="1" stop-color="#3ab8ff"/>
    </linearGradient>
  </defs>
  <path fill="url(#logo-gradient)" d="M36 5.5 60 14v19.6c0 16.1-9.3 27.1-24 33C21.3 60.7 12 49.7 12 33.6V14l24-8.5Z"/>
  <path fill="#071018" fill-opacity="0.95" d="M38 19.5c6.1 6.2 12 13.5 12 21 0 8.1-5.9 13.8-14 13.8s-14-5.7-14-13.8c0-7.5 5.9-14.8 12-21 1.1-1.1 2.9-1.1 4 0Z"/>
  <path fill="#36e28f" d="M39 28c3.1 3.7 5.8 8 5.8 12.2 0 5.1-3.7 8.7-8.8 8.7s-8.8-3.6-8.8-8.7c0-4.2 2.7-8.5 5.8-12.2 1.1-1.3 2.9-1.3 4 0Z"/>
  <text x="80" y="45" fill="#F4F9FF" font-family="Inter, ui-sans-serif, system-ui, -apple-system, BlinkMacSystemFont, 'Segoe UI', sans-serif" font-size="31" font-weight="850" letter-spacing="0">FuelShield</text>
  <path fill="#36e28f" d="M267 20h17c2.2 0 4 1.8 4 4v17c0 2.2-1.8 4-4 4h-17c-2.2 0-4-1.8-4-4V24c0-2.2 1.8-4 4-4Z" opacity="0.18"/>
  <path fill="#3ab8ff" d="M272 26h7.5c3.8 0 6.5 2.6 6.5 6.1 0 3.6-2.7 6.2-6.5 6.2H272V26Zm3.6 3.1v6.1h3.6c1.9 0 3.1-1.2 3.1-3.1s-1.2-3-3.1-3h-3.6Z"/>
</svg>
