<svg xmlns="http://www.w3.org/2000/svg" viewBox="0 0 64 64" role="img" aria-label="FuelShield logo mark">
  <defs>
    <linearGradient id="mark-gradient" x1="9" y1="7" x2="55" y2="59" gradientUnits="userSpaceOnUse">
      <stop offset="0" stop-color="#36e28f"/>
      <stop offset="1" stop-color="#3ab8ff"/>
    </linearGradient>
    <filter id="mark-shadow" x="-20%" y="-20%" width="140%" height="140%">
      <feDropShadow dx="0" dy="6" stdDeviation="5" flood-color="#020812" flood-opacity="0.32"/>
    </filter>
  </defs>
  <path filter="url(#mark-shadow)" fill="url(#mark-gradient)" d="M32 6.5 52 14v16.6c0 13.8-7.8 23.5-20 28.7-12.2-5.2-20-14.9-20-28.7V14l20-7.5Z"/>
  <path fill="#071018" fill-opacity="0.94" d="M33.7 18.1c5.2 5.3 10.7 11.9 10.7 18.8 0 7.3-5.4 12.4-12.4 12.4s-12.4-5.1-12.4-12.4c0-6.9 5.5-13.5 10.7-18.8.9-.9 2.5-.9 3.4 0Z"/>
  <path fill="#36e28f" d="M34.5 25.3c2.8 3.4 5.4 7.3 5.4 11.3 0 4.6-3.3 7.9-7.9 7.9s-7.9-3.3-7.9-7.9c0-4 2.6-7.9 5.4-11.3 1-1.2 2.1-1.2 3 0Z"/>
  <path fill="#3ab8ff" d="M40.4 15.8 48.7 19v11.8c0 7.5-2.6 13.4-7.6 17.9 2.7-4.3 4-9.2 4-14.6 0-6.5-2.2-12.7-4.7-18.3Z" opacity="0.4"/>
</svg>
